<svg xmlns="http://www.w3.org/2000/svg" viewBox="0 0 18.76 18.76"><defs><style>.cls-1{fill:#08090c;}</style></defs><title>Ресурс 16</title><g id="Слой_2" data-name="Слой 2"><g id="Слой_1-2" data-name="Слой 1"><path class="cls-1" d="M9.38,4.56A4.82,4.82,0,1,0,14.2,9.38,4.82,4.82,0,0,0,9.38,4.56Zm0,8a3.13,3.13,0,1,1,3.13-3.13A3.13,3.13,0,0,1,9.38,12.51Z"/><path class="cls-1" d="M14.39,3.25a1.13,1.13,0,1,0,1.13,1.12A1.13,1.13,0,0,0,14.39,3.25Z"/><path class="cls-1" d="M18.71,5.51a7,7,0,0,0-.44-2.27,4.69,4.69,0,0,0-1.08-1.67A4.66,4.66,0,0,0,15.53.49,6.84,6.84,0,0,0,13.25.06C12.25,0,11.93,0,9.38,0S6.51,0,5.51.06A6.72,6.72,0,0,0,3.24.49,4.74,4.74,0,0,0,.49,3.24,6.77,6.77,0,0,0,.06,5.51C0,6.51,0,6.83,0,9.38s0,2.87.06,3.87a6.84,6.84,0,0,0,.43,2.28,4.66,4.66,0,0,0,1.08,1.66,4.69,4.69,0,0,0,1.67,1.08,7,7,0,0,0,2.27.44c1,0,1.32.05,3.87.05s2.87,0,3.87-.05a7.07,7.07,0,0,0,2.28-.44,4.78,4.78,0,0,0,2.74-2.74,7.07,7.07,0,0,0,.44-2.28c0-1,.05-1.32.05-3.87S18.75,6.51,18.71,5.51ZM17,13.17a5,5,0,0,1-.33,1.74,3.08,3.08,0,0,1-1.78,1.78,5,5,0,0,1-1.74.33c-1,0-1.28.05-3.79.05s-2.8,0-3.79-.05a5.07,5.07,0,0,1-1.74-.33A2.88,2.88,0,0,1,2.77,16a2.88,2.88,0,0,1-.7-1.08,5.27,5.27,0,0,1-.33-1.74c0-1-.05-1.28-.05-3.79s0-2.8.05-3.79a5.33,5.33,0,0,1,.33-1.74,2.88,2.88,0,0,1,.7-1.08,2.88,2.88,0,0,1,1.08-.7,5.14,5.14,0,0,1,1.74-.32c1-.05,1.29-.06,3.79-.06s2.8,0,3.79.06a5.08,5.08,0,0,1,1.74.32,2.88,2.88,0,0,1,1.08.7,2.88,2.88,0,0,1,.7,1.08A5.07,5.07,0,0,1,17,5.59c0,1,.05,1.29.05,3.79S17.06,12.18,17,13.17Z"/></g></g></svg>