<svg xmlns="http://www.w3.org/2000/svg" viewBox="0 0 18.23 14.82"><defs><style>.cls-1{fill:#08090c;}</style></defs><title>Ресурс 15</title><g id="Слой_2" data-name="Слой 2"><g id="Слой_1-2" data-name="Слой 1"><path class="cls-1" d="M17.73.27a7.53,7.53,0,0,1-2.38.91A3.74,3.74,0,0,0,9,4.59,10.57,10.57,0,0,1,1.27.68a3.75,3.75,0,0,0,1.16,5,3.76,3.76,0,0,1-1.7-.47,3.76,3.76,0,0,0,3,3.72A3.82,3.82,0,0,1,2,9a3.75,3.75,0,0,0,3.5,2.6A7.56,7.56,0,0,1,0,13.14a10.6,10.6,0,0,0,5.73,1.68A10.59,10.59,0,0,0,16.37,3.69a7.62,7.62,0,0,0,1.86-1.94,7.36,7.36,0,0,1-2.15.59A3.7,3.7,0,0,0,17.73.27Z"/></g></g></svg>